<svg xmlns="http://www.w3.org/2000/svg" viewBox="0 0 483.84 205.3" id="traveling-back-to-home">
  <g id="Layer_2">
    <g id="Layer_1-2">
      <path d="M476.45 44.09v148.6H33.85a25.12 25.12 0 0 1-25.11-25.12v-18.94A104.48 104.48 0 0 1 113.28 44.09Z" style="fill:#a6d1e2"></path>
      <circle cx="98.54" cy="180.03" r="21.37" style="fill:#213042"></circle>
      <circle cx="151.8" cy="180.03" r="21.37" style="fill:#213042"></circle>
      <circle cx="335.05" cy="180.03" r="21.37" style="fill:#213042"></circle>
      <circle cx="388.32" cy="180.03" r="21.37" style="fill:#213042"></circle>
      <path d="M110 26.4h82.21v11H110zM340.06 26.4h82.21v11h-82.21z" style="fill:#425f87"></path>
      <path d="M476 31.43V180H32.51a25.12 25.12 0 0 1-25.12-25.08V136A104.48 104.48 0 0 1 111.94 31.43Z" style="fill:#d3dfe5"></path>
      <path d="M88.54 127.79h378.35v11.16H88.54z" style="fill:#fecb5c"></path>
      <rect width="103.46" height="51.73" x="97.67" y="55.77" rx="18.25" style="fill:#77bde6"></rect>
      <rect width="103.46" height="51.73" x="329.44" y="55.77" rx="18.25" style="fill:#77bde6"></rect>
      <path d="m44.93 117.38-36.06 1a104.64 104.64 0 0 1 68.22-81l.08 46.78a33.17 33.17 0 0 1-32.24 33.22Z" style="fill:#77bde6"></path>
      <rect width="86.64" height="142.13" x="221.42" y="34.66" rx=".23" style="fill:none;stroke-miterlimit:10;stroke:#adadad"></rect>
      <path d="M264.74 34.66V176.8" style="fill:none;stroke-miterlimit:10;stroke:#adadad"></path>
      <rect width="29.05" height="73.17" x="228.53" y="39.66" rx="14.04" style="fill:#77bde6"></rect>
      <rect width="29.05" height="73.17" x="272.55" y="39.66" rx="14.04" style="fill:#77bde6"></rect>
      <path d="m103.4 84.55 16.51-23.93M111.65 92.23l16.51-23.94M163.86 92.68l16.51-23.93M172.12 100.36l16.5-23.94M335.05 84.55l16.51-23.93M343.31 92.23l16.5-23.94M395.52 92.68l16.51-23.93M403.77 100.36l16.51-23.94M32.78 92.73 49.29 68.8M36.84 105.02l16.51-23.94M230.21 72.58l16.51-23.93M238.47 80.26l16.5-23.94M274.69 72.58l16.51-23.93M282.94 80.26l16.51-23.94" style="fill:none;stroke-miterlimit:10;stroke:#fff"></path>
      <path d="m387.17 186.09-8.45 3-8.1-16.2-10.12-16.17-2-5.06-6.07-20.25-5.07-20.25-4.05-23.29 18.23-1 .76 3a32 32 0 0 1 .86 10.27 70 70 0 0 0 .59 15.85l1.53 10.11a80.33 80.33 0 0 0 10.24 28.9l1.42 2.42c2.53 4.28 3.41 8 5.11 12.62Z" style="fill:#239ecc"></path>
      <path d="m361.51 86.86-18.23 1 4.05 23.29 2.17 8.67 5.92-16.77c3.84-2.55 6.09-16.19 6.09-16.19Z" style="fill:#1170b5"></path>
      <path d="M404.77 89h9.02v111h-9.02z" style="stroke:#edeff4;fill:none;stroke-miterlimit:10" transform="rotate(-35.12 409.33 144.499)"></path>
      <path d="M374 91.1a5.72 5.72 0 0 0 1.53 3.07 16.34 16.34 0 0 1 2.13 2.11c5.26 6.68 4.05 10.37 2.88 12a.69.69 0 0 1-1.16-.24c-.86-2.68-4.22-6.67-5.38-7.14s-.85 2.24-.72 3.25a.51.51 0 0 1-.46.59 2 2 0 0 1-1.37-.45 3.89 3.89 0 0 1-1.7-3.21l.07-8.1a4 4 0 0 0-.09-.84 2.38 2.38 0 0 0 1.65.88 2.29 2.29 0 0 0 2.6-1.73.88.88 0 0 0 .02-.19Z" style="fill:#d89f80"></path>
      <path d="M320.47 82.23a5.78 5.78 0 0 1-2.32 2.52 15.22 15.22 0 0 0-2.64 1.43c-6.92 4.94-6.78 8.83-6.11 10.69a.69.69 0 0 0 1.19.09c1.57-2.33 5.91-5.23 7.16-5.36s.19 2.39-.23 3.32a.53.53 0 0 0 .29.71 2.06 2.06 0 0 0 1.44 0 3.91 3.91 0 0 0 2.52-2.63l2.2-7.8a3.77 3.77 0 0 1 .32-.78 2.35 2.35 0 0 1-1.83.38 2.29 2.29 0 0 1-2-2.38Z" style="fill:#b5826b"></path>
      <path d="m333 161.26-15 30.9-8.5-3.08 29.23-104.93 22.78 2.71-.41 4.87a15.11 15.11 0 0 1-6.68 11.33l-15.8 44.76a128.36 128.36 0 0 1-5.62 13.44Z" style="fill:#239ecc"></path>
      <path d="m336.28 61.71 1 11.92 1-.95-1-22.28-.91 1.68a63.17 63.17 0 0 0-.09 9.63Z" style="fill:#082aa3"></path>
      <path d="m323.62 86.86-4.4-3.22 17.99-33.23 1.01 22.27-14.6 14.18z" style="fill:#448c4a"></path>
      <path d="M360.68 88c-2.2.39-8.21 1.35-11.55.76l-9.53-2.56a2 2 0 0 1-1.49-1.8l-1.83-22.71A62 62 0 0 1 340.52 34a4.68 4.68 0 0 1 2.56-2.59l8.19-3.41a4.48 4.48 0 0 1 4.1.33 13.06 13.06 0 0 1 6.14 11.08V87a1 1 0 0 1-.83 1Z" style="fill:#4da258"></path>
      <path d="M361.51 44.29v-5.6l-2-4.84-6.07 7.44 6.84 23.29 1.26 4.71Z" style="fill:#448c4a"></path>
      <path d="M347.35 35.81a4.43 4.43 0 0 1-4.43-4.43v-13.8h7.68l.75 13.55c.14 2.54-1.46 4.68-4 4.68Z" style="fill:#d89f80"></path>
      <path d="M348.7 25.65a2.33 2.33 0 0 0 2.3-1.73l-.35-6.34h-7.68v8.07Z" style="fill:#b5826b"></path>
      <path d="m374.41 84.66.26 8.27-5.06 2-8.1-30.38-8.1-23.29 5.65-9.11 3.8 6.76a109.66 109.66 0 0 1 11.55 45.75Z" style="fill:#4da258"></path>
      <path d="M336.19 5.57H351v15.35a3.89 3.89 0 0 1-3.89 3.89 11 11 0 0 1-11-11V5.57h.08Z" style="fill:#d89f80"></path>
      <path d="M350.56 13.16h-7.91a7.5 7.5 0 0 1-4.74-1.68 11.52 11.52 0 0 1-4.25-8.93V0l2.28 1.2a4.18 4.18 0 0 0 3.25.27l3.05-1A8.63 8.63 0 0 1 345 0h3.22a5.69 5.69 0 0 1 5.69 5.69v.89l-.65 4.26a2.73 2.73 0 0 1-2.7 2.32Z" style="fill:#300"></path>
      <path d="M309.86 188.8c0-.57-5.45 6.1-10.74 7.36-3.39.8-6.14 1.46-7.44 2.39-.4.29-.19 3.88.34 4l22.43-.66c.66.1 2.48.16 3.2.2 1 0 .79-1.69.86-2.65.09-1.21.18-.59.15-1.34-.05-1.45-.8-6.26-.8-6.26ZM378.86 188.8a16.62 16.62 0 0 1-6.51 8.59c-3 1.83-5.37 1.32-6.31 2.61-.3.4.08 2.89.61 2.8l22.35.11c.66-.12 1.66 0 2.14-.51 1.65-1.8-4.28-16.6-4.28-16.6Z" style="fill:#edeff4"></path>
      <rect width="31.67" height="82" x="414.57" y="116.59" rx="8" style="fill:#1170b5" transform="rotate(-35.12 430.411 157.584)"></rect>
      <circle cx="443.38" cy="200.3" r="3.5"></circle>
      <circle cx="443.38" cy="200.3" r="2" style="fill:#b4b4b5"></circle>
      <path d="m159.86 70.8-31 3 6-58h19l6 55z" style="fill:#300"></path>
      <path d="m145.64 69.85 12.92 24.93a3 3 0 0 1 .3.92l.9 5.62a2.63 2.63 0 0 0 1.4 2 1.09 1.09 0 0 0 .88.12.4.4 0 0 0 .22-.48c-.2-.68-.67-2.5.06-2.35s3.26 2.45 4.09 4.18a.41.41 0 0 0 .74 0c.53-1.27.84-4-3.13-7.87a8.83 8.83 0 0 0-1.55-1.16c-.42-.28-1.08-1-1.67-3.08-.55-1.86-4.34-12.27-5.5-16-3.48-11.29-9.85-18.54-9-8.54Z" style="fill:#b5826b"></path>
      <path d="m151.05 190.91 2.12-29 3.28-32.78L157 106a66 66 0 0 0-1.1-13.75l-1.41-13.33-23.64 2.95 11.93 48.45a25 25 0 0 1 .7 4.12l.48 5.49a17.1 17.1 0 0 1-.72 6.59 31.22 31.22 0 0 0-1.07 14.27l4.39 30.52Z" style="fill:#239ecc"></path>
      <path d="m143.28 86.78 10-6.71h-7.88L132 81.74c-.31.29-.61.58-.9.88l8.12 33 5.16-17.56c1.24-2.8-4.05-2.92-2.18-5.35 2.41-3.13-.61-2.36 1.08-5.93Z" style="fill:#1170b5"></path>
      <path d="m104.32 188.83 4.47.4 16.32-45.09c1.46-4.22 3.09-8.39 4.89-12.47l13.73-31.12a38.12 38.12 0 0 1 4.68-7.87c2.45-3.16 1.56-6.12 3.27-9.74.33-.69 2.75-1.91 2.86-2.87H133a23.72 23.72 0 0 0-9.59 16.2l-2.21 21.2-2.86 15.74a52.1 52.1 0 0 1-4 12.72 33.46 33.46 0 0 0-4.81 12.36Z" style="fill:#239ecc"></path>
      <path d="M98.36 142.3c.66-7.36 1.63-14.69 3-22q1-5.46 2.48-10.85a50.88 50.88 0 0 1 1.79-5.35 21 21 0 0 1 1.28-2.61 9.53 9.53 0 0 1 .92-1.28 4.87 4.87 0 0 1 .66-.6l.41-.27.52-.2a2.47 2.47 0 0 1 2.17.48 6.51 6.51 0 0 1 .64.65l.47.67a14.41 14.41 0 0 1 1.22 2.71 43.25 43.25 0 0 1 1.44 5.47c.72 3.66 1.25 7.33 1.63 11 .81 7.36 1.19 14.75 1.35 22.13-.94-7.32-1.84-14.65-2.89-21.93-.57-3.63-1.13-7.26-1.94-10.82a46.44 46.44 0 0 0-1.43-5.21A13.32 13.32 0 0 0 111 102l-.32-.46c-.12-.12-.23-.24-.34-.33a.49.49 0 0 0-.41-.13 3.47 3.47 0 0 0-1.35 1.45 17.57 17.57 0 0 0-1.16 2.34c-.7 1.65-1.25 3.39-1.79 5.13-1.07 3.49-1.92 7.06-2.77 10.64-1.59 7.19-3.07 14.42-4.5 21.66Z" style="fill:#ada43a"></path>
      <path d="M111 98.74a9.78 9.78 0 0 1 1.37-1.36s.38-1.56.6-2.36l6.65-24a3.43 3.43 0 0 1 6.72.94 3.38 3.38 0 0 1-.14.93L116.07 97a5.66 5.66 0 0 0-.43 2.47l.16 3.11a2.68 2.68 0 0 1-1.12 2.15 1.11 1.11 0 0 1-.86.24.4.4 0 0 1-.28-.45c.1-.7.32-2.57-.38-2.32s-2.9 2.87-3.49 4.7a.4.4 0 0 1-.73.1c-.69-1.22-1.37-3.88 2.06-8.26Z" style="fill:#d89f80"></path>
      <ellipse cx="138.68" cy="23.35" rx="2.03" ry="3.05" style="fill:#d89f80"></ellipse>
      <path d="M132.58 80.07h22.07s-.21-7.2.39-9.29l1.08-3.78a24.5 24.5 0 0 0 .68-3.17l.21-1.45a8.5 8.5 0 0 0-.82-5l-1.52-3a6.84 6.84 0 0 1-.65-4l.2-1.42a9.19 9.19 0 0 0-.38-4.26l-.13-.39a4.93 4.93 0 0 0-3.22-3.16l-4.09-1.28-6.91-.4h-3.8a11.75 11.75 0 0 0-11.52 9.43L119 72.54l6.5 2c1.63-3.26 5.9-18.91 5.9-18.91l.53 1.16a35.58 35.58 0 0 1 2.72 8.6l1 5.41a9.88 9.88 0 0 1-1.14 6.65Z" style="fill:#e0313e"></path>
      <path d="M146.4 39.81V26.6h-7.11v13.65a3.56 3.56 0 0 0 3.29 3.55h.42a3.68 3.68 0 0 0 .58-.08 3.54 3.54 0 0 0 2.77-3.09 2.36 2.36 0 0 0 0-.38v-.43Z" style="fill:#d89f80"></path>
      <path d="M139.29 26.6h7.11v8.72h-.4c-3 0-5.58-2.61-6.71-6.35Z" style="fill:#b5826b"></path>
      <ellipse cx="146.4" cy="23.96" rx="7.32" ry="10.57" style="fill:#d89f80"></ellipse>
      <path d="M134.61 15.21c0 4.16 4.13 8.16 8.95 6.31s9.51-4.79 10.16-6.51c1.47-3.89-4.59-7.32-9.76-7.32s-9.35 3.37-9.35 7.52Z" style="fill:#300"></path>
      <path d="M150.94 190.7c.61-.15 2 3.4 6.19 5.18a13.8 13.8 0 0 1 2.69 1.3c1.56 1.17 3.63 1.91 4 3.83.08.41.09.7 0 .72l-17.05.22c-1.17.22-2.15-1.89-1.78-3l.7-2.86c.29-.9.94-4.92.94-4.92ZM108.49 188.92c.63 0 1.44 3.69 5.22 6.16a13.07 13.07 0 0 1 2.43 1.73c1.34 1.42 3.25 2.5 3.28 4.46 0 .41 0 .7-.15.7l-16.85-2.67c-1.19 0-1.79-2.23-1.24-3.28l1.17-2.7c.44-.84 2.17-4.68 2.17-4.68Z" style="fill:#edeff4"></path>
      <path d="M76.86 134.8h65v25.62a13.38 13.38 0 0 1-13.38 13.38H90.24a13.38 13.38 0 0 1-13.38-13.38V134.8Z" style="fill:#e0313e"></path>
      <ellipse cx="152.83" cy="16.86" rx="2" ry="4.5" style="fill:#300" transform="rotate(-11.75 152.85 16.858)"></ellipse>
      <path d="m0 203.3 483.84.5" style="stroke:#f43b3b;stroke-width:3px;fill:none;stroke-miterlimit:10"></path>
    </g>
  </g>
</svg>
